<svg width="28" height="28" viewBox="0 0 28 28" fill="none" xmlns="http://www.w3.org/2000/svg">
<path d="M4.66669 12.8333L3.95958 13.5404L3.25247 12.8333L3.95958 12.1262L4.66669 12.8333ZM24.3334 22.1667C24.3334 22.7189 23.8856 23.1667 23.3334 23.1667C22.7811 23.1667 22.3334 22.7189 22.3334 22.1667L24.3334 22.1667ZM9.79291 19.3738L3.95958 13.5404L5.37379 12.1262L11.2071 17.9596L9.79291 19.3738ZM3.95958 12.1262L9.79291 6.29289L11.2071 7.7071L5.37379 13.5404L3.95958 12.1262ZM4.66669 11.8333L17.3334 11.8333L17.3334 13.8333L4.66669 13.8333L4.66669 11.8333ZM24.3334 18.8333L24.3334 22.1667L22.3334 22.1667L22.3334 18.8333L24.3334 18.8333ZM17.3334 11.8333C21.1993 11.8333 24.3334 14.9673 24.3334 18.8333L22.3334 18.8333C22.3334 16.0719 20.0948 13.8333 17.3334 13.8333L17.3334 11.8333Z" fill="#2E2E2E"/>
</svg>
